<?xml version="1.0" encoding="UTF-8"?>
<svg xmlns="http://www.w3.org/2000/svg" xmlns:xlink="http://www.w3.org/1999/xlink" width="20px" height="px" viewBox="0 0 20 20" version="1.1">
<g id="surface1">
<path style=" stroke:none;fill-rule:nonzero;fill:rgb(0%,0%,0%);fill-opacity:1;" d="M 5.207031 1.667969 C 4.179688 1.667969 3.332031 2.511719 3.332031 3.542969 L 3.332031 16.457031 C 3.332031 17.488281 4.179688 18.332031 5.207031 18.332031 L 14.792969 18.332031 C 15.820312 18.332031 16.667969 17.488281 16.667969 16.457031 L 16.667969 7.707031 C 16.667969 7.542969 16.601562 7.382812 16.484375 7.265625 L 16.476562 7.261719 L 11.066406 1.851562 C 10.949219 1.734375 10.789062 1.667969 10.625 1.667969 Z M 5.207031 2.917969 L 10 2.917969 L 10 6.457031 C 10 7.488281 10.847656 8.332031 11.875 8.332031 L 15.417969 8.332031 L 15.417969 16.457031 C 15.417969 16.8125 15.144531 17.082031 14.792969 17.082031 L 5.207031 17.082031 C 4.855469 17.082031 4.582031 16.8125 4.582031 16.457031 L 4.582031 3.542969 C 4.582031 3.1875 4.855469 2.917969 5.207031 2.917969 Z M 11.25 3.800781 L 14.53125 7.082031 L 11.875 7.082031 C 11.523438 7.082031 11.25 6.8125 11.25 6.457031 Z M 7.292969 10.417969 C 7.066406 10.414062 6.855469 10.53125 6.742188 10.726562 C 6.628906 10.921875 6.628906 11.160156 6.742188 11.355469 C 6.855469 11.550781 7.066406 11.667969 7.292969 11.667969 L 12.707031 11.667969 C 12.933594 11.667969 13.144531 11.550781 13.257812 11.355469 C 13.371094 11.160156 13.371094 10.921875 13.257812 10.726562 C 13.144531 10.53125 12.933594 10.414062 12.707031 10.417969 Z M 7.292969 13.332031 C 7.066406 13.332031 6.855469 13.449219 6.742188 13.644531 C 6.628906 13.839844 6.628906 14.078125 6.742188 14.273438 C 6.855469 14.46875 7.066406 14.585938 7.292969 14.582031 L 11.042969 14.582031 C 11.265625 14.585938 11.476562 14.46875 11.589844 14.273438 C 11.703125 14.078125 11.703125 13.839844 11.589844 13.644531 C 11.476562 13.449219 11.265625 13.332031 11.042969 13.332031 Z M 7.292969 13.332031 "/>
</g>
</svg>
