<?xml version="1.0" encoding="UTF-8"?>
<svg xmlns="http://www.w3.org/2000/svg" xmlns:xlink="http://www.w3.org/1999/xlink" width="20px" height="px" viewBox="0 0 20 20" version="1.1">
<g id="surface1">
<path style=" stroke:none;fill-rule:nonzero;fill:rgb(0%,0%,0%);fill-opacity:1;" d="M 13.269531 2.929688 C 13.15625 2.929688 13.042969 2.9375 12.929688 2.953125 C 12.265625 3.0625 11.679688 3.527344 11.453125 4.203125 C 11.40625 4.351562 11.359375 4.5 11.324219 4.648438 C 10.761719 4.597656 10.292969 4.585938 10 4.585938 C 9.707031 4.585938 9.238281 4.597656 8.675781 4.648438 C 8.640625 4.5 8.59375 4.351562 8.546875 4.207031 C 8.320312 3.53125 7.734375 3.0625 7.070312 2.953125 C 6.847656 2.917969 6.617188 2.921875 6.386719 2.972656 C 5.464844 3.164062 4.152344 3.542969 3.113281 4.386719 C 3.101562 4.394531 3.089844 4.402344 3.082031 4.414062 C 2.753906 4.71875 2.527344 5.132812 2.25 5.714844 C 1.972656 6.292969 1.683594 7.023438 1.414062 7.859375 C 0.882812 9.527344 0.449219 11.597656 0.449219 13.652344 C 0.449219 13.761719 0.476562 13.867188 0.527344 13.960938 C 1.503906 15.695312 3.628906 16.351562 4.925781 16.613281 C 5.644531 16.757812 6.382812 16.464844 6.808594 15.871094 L 7.324219 15.15625 C 8.09375 15.316406 8.988281 15.425781 10 15.425781 C 11.011719 15.425781 11.90625 15.316406 12.675781 15.15625 L 13.1875 15.871094 C 13.617188 16.464844 14.355469 16.757812 15.074219 16.613281 C 16.371094 16.351562 18.492188 15.695312 19.472656 13.960938 C 19.523438 13.867188 19.550781 13.761719 19.550781 13.652344 C 19.550781 11.597656 19.117188 9.523438 18.582031 7.859375 C 18.316406 7.023438 18.027344 6.292969 17.75 5.710938 C 17.472656 5.128906 17.246094 4.71875 16.917969 4.414062 C 16.90625 4.402344 16.898438 4.394531 16.886719 4.386719 C 15.847656 3.542969 14.535156 3.164062 13.613281 2.96875 C 13.496094 2.945312 13.382812 2.933594 13.269531 2.929688 Z M 13.238281 4.179688 C 13.277344 4.179688 13.316406 4.183594 13.355469 4.195312 C 14.167969 4.367188 15.3125 4.730469 16.074219 5.34375 C 16.125 5.394531 16.378906 5.746094 16.621094 6.253906 C 16.871094 6.769531 17.144531 7.453125 17.394531 8.238281 C 17.875 9.75 18.257812 11.640625 18.28125 13.460938 C 17.589844 14.511719 15.902344 15.171875 14.824219 15.386719 C 14.585938 15.4375 14.351562 15.34375 14.203125 15.140625 L 13.960938 14.804688 C 14.210938 14.71875 14.449219 14.632812 14.65625 14.542969 C 15.703125 14.097656 16.285156 13.613281 16.285156 13.613281 C 16.546875 13.390625 16.578125 12.996094 16.355469 12.730469 C 16.128906 12.46875 15.734375 12.4375 15.472656 12.660156 C 15.472656 12.660156 15.078125 13.007812 14.167969 13.394531 C 13.261719 13.78125 11.878906 14.175781 10 14.175781 C 8.121094 14.175781 6.738281 13.78125 5.832031 13.394531 C 4.921875 13.007812 4.527344 12.660156 4.527344 12.660156 C 4.417969 12.566406 4.273438 12.507812 4.128906 12.507812 C 3.863281 12.5 3.621094 12.664062 3.527344 12.914062 C 3.433594 13.164062 3.511719 13.445312 3.714844 13.613281 C 3.714844 13.613281 4.296875 14.097656 5.34375 14.542969 C 5.550781 14.632812 5.789062 14.71875 6.039062 14.804688 L 5.796875 15.140625 C 5.648438 15.347656 5.410156 15.4375 5.171875 15.390625 C 4.097656 15.171875 2.40625 14.511719 1.714844 13.460938 C 1.742188 11.644531 2.125 9.753906 2.605469 8.238281 C 2.855469 7.453125 3.128906 6.769531 3.378906 6.253906 C 3.621094 5.746094 3.875 5.394531 3.925781 5.34375 C 4.6875 4.734375 5.832031 4.367188 6.644531 4.195312 C 6.957031 4.128906 7.257812 4.292969 7.359375 4.601562 C 7.386719 4.683594 7.40625 4.757812 7.425781 4.832031 C 6.496094 5.015625 5.457031 5.335938 4.472656 5.921875 C 4.273438 6.03125 4.148438 6.242188 4.148438 6.46875 C 4.148438 6.699219 4.273438 6.910156 4.472656 7.019531 C 4.675781 7.128906 4.917969 7.117188 5.109375 6.996094 C 6.925781 5.917969 9.167969 5.835938 10 5.835938 C 10.832031 5.835938 13.074219 5.917969 14.890625 6.996094 C 15.082031 7.117188 15.324219 7.128906 15.527344 7.019531 C 15.726562 6.910156 15.851562 6.699219 15.851562 6.46875 C 15.851562 6.242188 15.726562 6.03125 15.527344 5.921875 C 14.542969 5.335938 13.503906 5.015625 12.570312 4.832031 C 12.59375 4.757812 12.613281 4.679688 12.636719 4.601562 C 12.726562 4.332031 12.96875 4.171875 13.238281 4.179688 Z M 7.304688 9.167969 C 6.511719 9.171875 5.867188 9.910156 5.867188 10.816406 C 5.867188 11.726562 6.511719 12.460938 7.304688 12.464844 C 8.101562 12.460938 8.742188 11.726562 8.742188 10.816406 C 8.742188 9.910156 8.101562 9.171875 7.304688 9.167969 Z M 12.683594 9.167969 C 11.878906 9.167969 11.226562 9.914062 11.226562 10.832031 C 11.226562 11.753906 11.878906 12.5 12.683594 12.5 C 13.492188 12.5 14.144531 11.753906 14.144531 10.832031 C 14.144531 9.914062 13.492188 9.167969 12.683594 9.167969 Z M 12.683594 9.167969 "/>
</g>
</svg>
