<?xml version="1.0" encoding="UTF-8"?>
<svg xmlns="http://www.w3.org/2000/svg" xmlns:xlink="http://www.w3.org/1999/xlink" width="20px" height="px" viewBox="0 0 20 20" version="1.1">
<g id="surface1">
<path style=" stroke:none;fill-rule:nonzero;fill:rgb(0%,0%,0%);fill-opacity:1;" d="M 10 1.667969 C 5.40625 1.667969 1.667969 5.40625 1.667969 10 C 1.667969 14.59375 5.40625 18.332031 10 18.332031 C 14.59375 18.332031 18.332031 14.59375 18.332031 10 C 18.332031 5.40625 14.59375 1.667969 10 1.667969 Z M 10 2.917969 C 13.917969 2.917969 17.082031 6.082031 17.082031 10 C 17.082031 13.195312 14.980469 15.882812 12.082031 16.773438 L 12.082031 14.640625 C 12.082031 13.84375 11.625 13.160156 10.960938 12.824219 C 12.269531 12.570312 13.347656 11.832031 13.851562 10.835938 C 14.359375 9.839844 14.234375 8.710938 13.515625 7.800781 C 13.699219 7.230469 13.90625 6.234375 13.417969 5.449219 C 12.46875 5.449219 11.859375 6.097656 11.570312 6.5 C 11.070312 6.335938 10.539062 6.25 10 6.25 C 9.460938 6.25 8.929688 6.335938 8.429688 6.496094 C 8.136719 6.09375 7.527344 5.449219 6.582031 5.449219 C 6.019531 6.347656 6.367188 7.320312 6.554688 7.714844 C 5.789062 8.621094 5.625 9.769531 6.121094 10.789062 C 6.617188 11.808594 7.703125 12.570312 9.035156 12.824219 C 8.488281 13.105469 8.082031 13.613281 7.957031 14.230469 L 7.410156 14.230469 C 6.871094 14.230469 6.660156 14.011719 6.367188 13.640625 C 6.078125 13.269531 5.769531 13.023438 5.394531 12.917969 C 5.195312 12.898438 5.058594 13.050781 5.234375 13.1875 C 5.828125 13.589844 5.867188 14.246094 6.105469 14.679688 C 6.320312 15.066406 6.761719 15.417969 7.261719 15.417969 L 7.917969 15.417969 L 7.917969 16.773438 C 5.019531 15.882812 2.917969 13.195312 2.917969 10 C 2.917969 6.082031 6.082031 2.917969 10 2.917969 Z M 10 2.917969 "/>
</g>
</svg>
